<?xml version="1.0" encoding="utf-8"?>
<!-- Generator: Adobe Illustrator 17.0.0, SVG Export Plug-In . SVG Version: 6.00 Build 0)  -->
<!DOCTYPE svg PUBLIC "-//W3C//DTD SVG 1.1//EN" "http://www.w3.org/Graphics/SVG/1.1/DTD/svg11.dtd">
<svg version="1.1" id="图形" xmlns="http://www.w3.org/2000/svg" xmlns:xlink="http://www.w3.org/1999/xlink" x="0px" y="0px"
	 width="1000.636px" height="1000.678px" viewBox="15.167 -16.333 1000.636 1000.678"
	 enable-background="new 15.167 -16.333 1000.636 1000.678" xml:space="preserve">
<path fill="#f35253" d="M515.485,48.825c-240.344,0-435.181,194.837-435.181,435.181s194.837,435.181,435.181,435.181
	S950.666,724.35,950.666,484.006S755.829,48.825,515.485,48.825z M576.232,779.831c0,9.393-7.615,17.008-17.008,17.008h-88.479
	c-9.393,0-17.008-7.615-17.008-17.008v-92.028c0-9.393,7.615-17.008,17.008-17.008h88.479c9.393,0,17.008,7.615,17.008,17.008
	V779.831z M578.243,577.79c0,9.393-7.615,17.008-17.008,17.008H469.91c-9.393,0-17.008-7.615-17.008-17.008V195.954
	c0-9.393,7.615-17.008,17.008-17.008h91.325c9.393,0,17.008,7.615,17.008,17.008V577.79z"/>
</svg>
